<?xml version="1.0" encoding="UTF-8"?>
<svg version="1.1" xmlns="http://www.w3.org/2000/svg" width="500" height="500">
<path d="M0 0 C165 0 330 0 500 0 C500 165 500 330 500 500 C335 500 170 500 0 500 C0 335 0 170 0 0 Z " fill="#FEFEFE" transform="translate(0,0)"/>
<path d="M0 0 C20.88848731 9.46152489 35.10597369 42.11555168 42.89160156 62.31298828 C43.60271753 64.20555482 44.30255576 66.10235263 45 68 C45.58265625 67.12859375 46.1653125 66.2571875 46.765625 65.359375 C55.48878025 52.58070191 65.72276303 42.4284769 78 33 C78.71671875 32.43152344 79.4334375 31.86304688 80.171875 31.27734375 C86.03276665 26.88167501 92.43250313 23.45441899 98.875 20 C99.8036084 19.4942041 100.7322168 18.9884082 101.68896484 18.46728516 C102.57277832 18.00370605 103.4565918 17.54012695 104.3671875 17.0625 C105.16237793 16.64097656 105.95756836 16.21945313 106.77685547 15.78515625 C109.37894621 14.86616615 110.46070889 15.00119455 113 16 C120.93258706 21.21084898 128.12121911 27.48675819 135 34 C135.81082031 34.75796875 136.62164062 35.5159375 137.45703125 36.296875 C147.274112 45.75837644 157.84704964 57.73208046 164 70 C163.703125 72.3359375 163.703125 72.3359375 163 74 C162.37351562 74.06058594 161.74703125 74.12117188 161.1015625 74.18359375 C160.28429687 74.26738281 159.46703125 74.35117188 158.625 74.4375 C157.81289063 74.51871094 157.00078125 74.59992188 156.1640625 74.68359375 C153.95727195 74.89090114 153.95727195 74.89090114 152 76 C152.65226563 76.51949219 153.30453125 77.03898437 153.9765625 77.57421875 C158.69160088 81.33651338 163.38592135 85.11446009 168 89 C167.67 90.32 167.34 91.64 167 93 C165.68 93.33 164.36 93.66 163 94 C163.55429687 94.45890625 164.10859375 94.9178125 164.6796875 95.390625 C165.40414062 96.00421875 166.12859375 96.6178125 166.875 97.25 C167.59429687 97.85328125 168.31359375 98.4565625 169.0546875 99.078125 C170.9917088 100.9918087 172.0817887 102.44589499 173 105 C172.67 105.66 172.34 106.32 172 107 C172.24496076 108.62100122 172.49285031 110.24161312 172.75537109 111.85986328 C173.03054955 114.26726287 173.01784671 116.57399243 172.95703125 118.99609375 C172.93576172 119.88490234 172.91449219 120.77371094 172.89257812 121.68945312 C172.83929538 123.51796085 172.77423363 125.34616418 172.69726562 127.17382812 C172.58725691 132.80057002 173.23297719 136.5144493 176.22924805 141.32836914 C177 143 177 143 176 146 C174.19018166 145.79674681 172.38036522 145.5934768 170.57055664 145.39013672 C168.94633749 145.20942757 167.3218092 145.03148061 165.69702148 144.85595703 C161.72482034 144.42556906 157.76137125 143.97819495 153.8046875 143.421875 C130.98873509 140.37012779 107.48076232 141.63774198 84.5625 142.875 C83.81300079 142.91411499 83.06350159 142.95322998 82.29129028 142.99353027 C65.96086218 143.44567836 65.96086218 143.44567836 51 149 C47.40625 149.3984375 47.40625 149.3984375 43.5 149.375 C42.2109375 149.38273438 40.921875 149.39046875 39.59375 149.3984375 C36 149 36 149 33.72680664 147.5480957 C24.05306762 142.05600338 8.4830799 143.63731404 -2.4375 143.6875 C-3.62430359 143.68923721 -3.62430359 143.68923721 -4.83508301 143.69100952 C-27.3448487 143.75529266 -49.61457459 146.10487402 -71.91308594 149.08520508 C-77.98001634 149.87344081 -83.88325539 150.15692476 -90 150 C-89.58441691 147.09091836 -89.12245244 145.18379652 -87.47802734 142.71557617 C-85.71186468 139.47060964 -85.64492634 137.41379151 -85.6640625 133.73828125 C-85.65117188 132.53623047 -85.63828125 131.33417969 -85.625 130.09570312 C-85.625 127.59308676 -85.63268983 125.09045744 -85.6484375 122.58789062 C-85.51843185 112.43119893 -83.27183574 104.87606137 -76.1875 97.375 C-75.28064453 96.39660156 -75.28064453 96.39660156 -74.35546875 95.3984375 C-73.68451172 94.70621094 -73.68451172 94.70621094 -73 94 C-74.32 93.34 -75.64 92.68 -77 92 C-75.3898477 87.92612068 -72.45982656 85.23381659 -69.375 82.25 C-67.60125 80.5175 -65.8275 78.785 -64 77 C-68.95 76.01 -73.9 75.02 -79 74 C-77.56083139 65.36498831 -73.93802679 60.48681492 -68.0625 54.375 C-67.17026733 53.43587769 -67.17026733 53.43587769 -66.26000977 52.4777832 C-64.18464226 50.30733278 -62.09389012 48.15258456 -60 46 C-59.1759668 45.14873535 -58.35193359 44.2974707 -57.50292969 43.42041016 C-29.37603846 14.4650314 -29.37603846 14.4650314 -20 14 C-17.76953125 14.77734375 -17.76953125 14.77734375 -15.8125 15.9375 C-13.11326024 17.50806357 -12.22599213 18 -9 18 C-7.87159372 15.93930083 -6.74721229 13.87656904 -5.625 11.8125 C-4.99851562 10.66394531 -4.37203125 9.51539063 -3.7265625 8.33203125 C-2.30306245 5.58486938 -1.07941553 2.89479619 0 0 Z " fill="#272727" transform="translate(207,175)"/>
<path d="M0 0 C16.11348183 10.43493552 29.29505892 24.77273973 41 39.8125 C41.56452881 40.53002441 42.12905762 41.24754883 42.71069336 41.98681641 C45.67608416 45.86564339 47.789496 49.18068094 49 54 C48.33693848 54.12004395 47.67387695 54.24008789 46.99072266 54.36376953 C27.37186164 57.96626552 9.64147 62.51439526 -7.98486328 71.93798828 C-10.04542698 73.0239408 -12.12557328 74.06032729 -14.21484375 75.08984375 C-28.79250811 82.37202402 -41.09987078 91.91172878 -53 103 C-54.43284937 104.25532821 -55.87011408 105.50564109 -57.3125 106.75 C-59.60112473 108.73347477 -61.77702651 110.75389494 -63.875 112.9375 C-66 115 -66 115 -68 115 C-68.23352351 107.15858758 -68.41028283 99.31801544 -68.51812172 91.47398186 C-68.56992985 87.82986005 -68.63996627 84.18814608 -68.75439453 80.54541016 C-69.64812853 51.33334917 -69.64812853 51.33334917 -60.59887695 41.45458984 C-59.74124756 40.6445752 -58.88361816 39.83456055 -58 39 C-56.50924888 37.25985773 -55.02808999 35.51138582 -53.5625 33.75 C-40.1775014 19.42898752 -25.63022748 9.26796875 -8 1 C-7.27039063 0.5771875 -6.54078125 0.154375 -5.7890625 -0.28125 C-3.36094891 -1.25673668 -2.41416228 -0.99989557 0 0 Z " fill="#FDFDFD" transform="translate(320,193)"/>
<path d="M0 0 C1.16692383 -0.01836914 1.16692383 -0.01836914 2.35742188 -0.03710938 C8.87342285 -0.05314547 14.0307691 0.97718529 20.6875 2.1875 C20.3575 11.7575 20.0275 21.3275 19.6875 31.1875 C12.80402809 31.1875 7.28629171 31.04627512 0.6875 30.1875 C-2.47717941 30.04914233 -5.63735971 30.04725174 -8.8046875 30.0546875 C-9.69981049 30.05323227 -10.59493347 30.05177704 -11.5171814 30.05027771 C-14.40733126 30.04804431 -17.297362 30.05428497 -20.1875 30.0625 C-21.17536499 30.06438324 -22.16322998 30.06626648 -23.18103027 30.06820679 C-43.04242733 30.11271829 -62.8022414 30.26837624 -82.5625 32.5 C-83.55797852 32.60546143 -84.55345703 32.71092285 -85.57910156 32.81958008 C-91.22188413 33.5344828 -94.67750404 34.6972922 -99.3125 38.1875 C-105.04797002 40.04847698 -110.09389995 39.0247872 -115.66015625 37.07421875 C-150.87472458 25.30145438 -197.15595363 28.68202156 -233.3125 34.1875 C-234.0734241 24.48571771 -234.44750337 14.92274288 -234.3125 5.1875 C-224.92957494 2.98686551 -215.64353967 2.74840127 -206.0625 2.75 C-204.85611877 2.74790024 -204.85611877 2.74790024 -203.62536621 2.74575806 C-172.03536937 2.79057043 -140.02602178 9.20861331 -112.09765625 24.46484375 C-108.34991195 26.3529119 -105.54423652 26.76870331 -101.3125 26.1875 C-98.82131504 25.08886746 -96.5969366 23.96636805 -94.25 22.625 C-84.38832705 17.37338746 -74.02324865 14.24435273 -63.3125 11.1875 C-61.89759277 10.78120361 -61.89759277 10.78120361 -60.45410156 10.36669922 C-46.23341462 6.33807257 -31.92874237 3.37201287 -17.3125 1.1875 C-16.61729248 1.08219971 -15.92208496 0.97689941 -15.20581055 0.8684082 C-10.12260462 0.16022162 -5.12081706 0.00418026 0 0 Z " fill="#E4E4E4" transform="translate(357.3125,283.8125)"/>
<path d="M0 0 C0.66 0 1.32 0 2 0 C4 3 4 3 3.625 5.1875 C3.41875 5.785625 3.2125 6.38375 3 7 C2.37351562 7.06058594 1.74703125 7.12117187 1.1015625 7.18359375 C-0.12433594 7.30927734 -0.12433594 7.30927734 -1.375 7.4375 C-2.18710937 7.51871094 -2.99921875 7.59992188 -3.8359375 7.68359375 C-6.04272805 7.89090114 -6.04272805 7.89090114 -8 9 C-7.34773437 9.51949219 -6.69546875 10.03898438 -6.0234375 10.57421875 C-1.30839912 14.33651338 3.38592135 18.11446009 8 22 C7.67 23.32 7.34 24.64 7 26 C5.02 26.495 5.02 26.495 3 27 C3.55429687 27.45890625 4.10859375 27.9178125 4.6796875 28.390625 C5.76636719 29.31101562 5.76636719 29.31101562 6.875 30.25 C7.59429687 30.85328125 8.31359375 31.4565625 9.0546875 32.078125 C10.9917088 33.9918087 12.0817887 35.44589499 13 38 C12.67 38.66 12.34 39.32 12 40 C12.24496076 41.62100122 12.49285031 43.24161312 12.75537109 44.85986328 C13.03054955 47.26726287 13.01784671 49.57399243 12.95703125 51.99609375 C12.93576172 52.88490234 12.91449219 53.77371094 12.89257812 54.68945312 C12.83929538 56.51796085 12.77423363 58.34616418 12.69726562 60.17382812 C12.58725691 65.80057002 13.23297719 69.5144493 16.22924805 74.32836914 C17 76 17 76 16 79 C14.19018166 78.79674681 12.38036522 78.5934768 10.57055664 78.39013672 C8.94633749 78.20942757 7.3218092 78.03148061 5.69702148 77.85595703 C1.72482034 77.42556906 -2.23862875 76.97819495 -6.1953125 76.421875 C-29.01126491 73.37012779 -52.51923768 74.63774198 -75.4375 75.875 C-76.18699921 75.91411499 -76.93649841 75.95322998 -77.70870972 75.99353027 C-94.03913782 76.44567836 -94.03913782 76.44567836 -109 82 C-112.59375 82.3984375 -112.59375 82.3984375 -116.5 82.375 C-117.7890625 82.38273437 -119.078125 82.39046875 -120.40625 82.3984375 C-124 82 -124 82 -126.27319336 80.5480957 C-135.94693238 75.05600338 -151.5169201 76.63731404 -162.4375 76.6875 C-163.62430359 76.68923721 -163.62430359 76.68923721 -164.83508301 76.69100952 C-187.3448487 76.75529266 -209.61457459 79.10487402 -231.91308594 82.08520508 C-237.98001634 82.87344081 -243.88325539 83.15692476 -250 83 C-249.58474675 80.09322727 -249.12385975 78.18581947 -247.48022461 75.7199707 C-245.70718317 72.46193761 -245.6313486 70.35944895 -245.62890625 66.66796875 C-245.61150391 65.45689453 -245.59410156 64.24582031 -245.57617188 62.99804688 C-245.56709938 60.46941195 -245.56185502 57.94076023 -245.56054688 55.41210938 C-245.44952399 48.19562156 -245.10266642 43.05348057 -241 37 C-239.515 36.505 -239.515 36.505 -238 36 C-236.36504934 33.66683434 -234.87629376 31.27376831 -233.40234375 28.8359375 C-230.62602909 26.71420109 -230.01339804 26.74925984 -226.6484375 27 C-219.87654554 28.01383411 -213.28377081 29.81983301 -206.6875 31.625 C-206.02704681 31.80429047 -205.36659363 31.98358093 -204.68612671 32.16830444 C-183.45657712 37.94045876 -163.27131457 45.50805634 -143 54 C-147.56979407 55.46157615 -150.94801182 53.9056672 -155.3125 52.375 C-171.87588718 46.88666441 -188.5208909 43.25808081 -206 43 C-206 43.66 -206 44.32 -206 45 C-206.76030518 45.02505615 -207.52061035 45.0501123 -208.30395508 45.07592773 C-211.80692017 45.19321629 -215.30970186 45.31533057 -218.8125 45.4375 C-220.00810547 45.47681641 -221.20371094 45.51613281 -222.43554688 45.55664062 C-229.65374956 45.81232628 -236.81578561 46.25059072 -244 47 C-243.9278125 47.83660156 -243.855625 48.67320312 -243.78125 49.53515625 C-243.07506241 58.3919256 -242.88804673 67.11837426 -243 76 C-242.319375 75.87882812 -241.63875 75.75765625 -240.9375 75.6328125 C-237.62901966 75.06086776 -234.31596804 74.52688845 -231 74 C-229.8869751 73.82299561 -228.7739502 73.64599121 -227.62719727 73.46362305 C-215.72960957 71.7745039 -203.93975976 71.64766219 -191.9375 71.6875 C-190.36367554 71.68873871 -190.36367554 71.68873871 -188.75805664 71.69000244 C-142.79398217 71.77304898 -142.79398217 71.77304898 -123.0625 78.6875 C-118.22748038 80.14320483 -113.8589418 80.57657154 -109 79 C-108.1440625 78.35546875 -107.288125 77.7109375 -106.40625 77.046875 C-101.7772099 74.26520411 -97.55980872 73.87502344 -92.25 73.3125 C-91.18491211 73.19221436 -90.11982422 73.07192871 -89.02246094 72.94799805 C-70.55531061 70.98637029 -52.02420516 70.90678322 -33.47277832 70.82577515 C-31.5659436 70.81707718 -29.65911895 70.80564253 -27.75231934 70.79116821 C-15.02896219 70.70596842 -2.62448709 71.39915082 10 73 C9.99214478 71.89543457 9.99214478 71.89543457 9.98413086 70.76855469 C9.96333133 67.42904515 9.95033032 64.08954926 9.9375 60.75 C9.92912109 59.59113281 9.92074219 58.43226563 9.91210938 57.23828125 C9.90727539 55.56572266 9.90727539 55.56572266 9.90234375 53.859375 C9.89448853 52.31975098 9.89448853 52.31975098 9.88647461 50.74902344 C9.98663049 48.32374344 10.30076922 46.31302639 11 44 C10.4225 43.855625 9.845 43.71125 9.25 43.5625 C7.927514 43.2318785 6.60929015 42.88107607 5.30517578 42.48413086 C-15.08022786 38.20280747 -38.46743912 42.27069791 -58 48 C-60.14650749 48.59601608 -62.29365003 49.18974957 -64.44140625 49.78125 C-74.28031484 52.53521009 -83.97816198 55.50677962 -93.48828125 59.25 C-96 60 -96 60 -99 59 C-93.39 55.04 -87.78 51.08 -82 47 C-87.74055387 50.2421266 -87.74055387 50.2421266 -93.04296875 53.91015625 C-94.06487305 54.68262695 -94.06487305 54.68262695 -95.10742188 55.47070312 C-95.79384766 55.99599609 -96.48027344 56.52128906 -97.1875 57.0625 C-97.88552734 57.59166016 -98.58355469 58.12082031 -99.30273438 58.66601562 C-99.98013672 59.17970703 -100.65753906 59.69339844 -101.35546875 60.22265625 C-102.31718994 60.94799561 -102.31718994 60.94799561 -103.29833984 61.68798828 C-104.64585477 62.72694742 -105.95066951 63.821259 -107.23828125 64.93359375 C-109 66 -109 66 -111.25 65.6875 C-111.8275 65.460625 -112.405 65.23375 -113 65 C-106.85537962 58.64144699 -100.6641808 52.67701943 -93.7265625 47.17578125 C-91.94157996 45.75137541 -90.18448397 44.29112837 -88.4609375 42.79296875 C-76.19683196 32.21471458 -61.57112111 24.88354628 -47 18 C-45.86304688 17.45472656 -44.72609375 16.90945313 -43.5546875 16.34765625 C-29.03343677 9.72717883 -13.82164126 6.46213788 2 5 C1.01 2.525 1.01 2.525 0 0 Z " fill="#303030" transform="translate(367,242)"/>
<path d="M0 0 C19.28555058 15.09303958 38.48303402 43.93433831 42.40332031 68.53045654 C42.99745111 74.47248697 42.97881458 80.40960732 42.9375 86.375 C42.95006181 88.17897831 42.96562894 89.98293807 42.98413086 91.78686523 C43.02110506 96.09835029 43.02153104 100.40869555 43.0057373 104.72027588 C42.99768031 107.92173061 43.01794341 111.12283987 43.0390625 114.32421875 C43.06295914 118.88369685 43.05084654 123.44075992 43 128 C40.46802369 124.91794577 38.6580749 121.61400773 36.79150391 118.11230469 C25.56566352 97.10566655 7.54199258 67.02162655 -16.22265625 58.8984375 C-20.2707139 57.93561097 -23.78393772 57.80148562 -27.9375 57.875 C-28.96327148 57.88853516 -28.96327148 57.88853516 -30.00976562 57.90234375 C-31.67333287 57.92561042 -33.33671631 57.96146833 -35 58 C-30.41398723 48.27911654 -25.59341101 39.53762195 -19 31 C-7.84615006 16.42129175 -7.84615006 16.42129175 0 0 Z " fill="#FDFDFD" transform="translate(208,177)"/>
<path d="M0 0 C2.39007705 0.90525965 4.67523623 1.93060866 7 3 C5.54321323 7.34647855 3.31770481 10.33221286 0.4375 13.875 C-7.2802562 23.63020995 -14.01260279 34.14934395 -18 46 C-17.29101562 45.67773438 -16.58203125 45.35546875 -15.8515625 45.0234375 C-8.17991795 42.27005274 0.02533829 43.65342516 7.40625 46.67578125 C11.77122599 48.90428556 15.3677477 51.73164681 19 55 C19.64324219 55.57363281 20.28648437 56.14726562 20.94921875 56.73828125 C34.51535374 69.58896084 47.4945108 87.34660974 56 104 C55.67 104.66 55.34 105.32 55 106 C54.34515625 105.31035156 53.6903125 104.62070312 53.015625 103.91015625 C25.84340376 75.9319793 -11.67531812 62.36843816 -49.64697266 57.31542969 C-52.76767637 56.8970909 -55.8838126 56.45063556 -59 56 C-58.70486152 44.48959934 -44.51599562 33.81902979 -37 26 C-36.34225586 25.31357422 -35.68451172 24.62714844 -35.00683594 23.91992188 C-9.82633834 -2.22483132 -9.82633834 -2.22483132 0 0 Z " fill="#FBFBFB" transform="translate(189,192)"/>
<path d="M0 0 C2.11937681 0.61063837 4.23784257 1.15371154 6.38378906 1.66113281 C36.0336313 8.90047858 69.74093336 25.75068324 87.37597656 51.68457031 C86.88097656 52.67457031 86.88097656 52.67457031 86.37597656 53.68457031 C85.80790283 53.38276855 85.2398291 53.0809668 84.65454102 52.77001953 C48.02605697 33.34688931 9.82930711 20.54192444 -30.62402344 11.68457031 C-30.22787842 11.23364014 -29.8317334 10.78270996 -29.42358398 10.31811523 C-27.10424389 7.65060876 -24.88123581 5.08153274 -22.95605469 2.11035156 C-16.88587673 -6.33172112 -8.55093877 -2.48833318 0 0 Z " fill="#FAFAFA" transform="translate(162.6240234375,254.3154296875)"/>
<path d="M0 0 C6.77189196 1.01383411 13.36466669 2.81983301 19.9609375 4.625 C20.62139069 4.80429047 21.28184387 4.98358093 21.96231079 5.16830444 C43.19186038 10.94045876 63.37712293 18.50805634 83.6484375 27 C79.07864343 28.46157615 75.70042568 26.9056672 71.3359375 25.375 C54.77255032 19.88666441 38.1275466 16.25808081 20.6484375 16 C20.6484375 16.66 20.6484375 17.32 20.6484375 18 C19.88813232 18.02505615 19.12782715 18.0501123 18.34448242 18.07592773 C14.84151733 18.19321629 11.33873564 18.31533057 7.8359375 18.4375 C6.64033203 18.47681641 5.44472656 18.51613281 4.21289062 18.55664062 C-3.00531206 18.81232628 -10.16734811 19.25059072 -17.3515625 20 C-17.279375 20.83660156 -17.2071875 21.67320312 -17.1328125 22.53515625 C-16.42662491 31.3919256 -16.23960923 40.11837426 -16.3515625 49 C-15.6709375 48.87882812 -14.9903125 48.75765625 -14.2890625 48.6328125 C12.35759829 44.02634188 38.7559576 44.27328053 65.6484375 47 C65.6484375 47.33 65.6484375 47.66 65.6484375 48 C58.7184375 48 51.7884375 48 44.6484375 48 C44.6484375 48.66 44.6484375 49.32 44.6484375 50 C43.77968994 50.07516846 42.91094238 50.15033691 42.01586914 50.2277832 C37.91384563 50.58517386 33.81226275 50.94719327 29.7109375 51.3125 C28.9665744 51.37869537 28.2222113 51.44489075 27.45529175 51.51309204 C16.52261639 52.4914855 5.62540718 53.62646213 -5.25561523 55.08520508 C-11.32585388 55.87133604 -17.23166903 56.15700555 -23.3515625 56 C-22.93630925 53.09322727 -22.47542225 51.18581947 -20.83178711 48.7199707 C-19.05874567 45.46193761 -18.9829111 43.35944895 -18.98046875 39.66796875 C-18.96306641 38.45689453 -18.94566406 37.24582031 -18.92773438 35.99804688 C-18.91866188 33.46941195 -18.91341752 30.94076023 -18.91210938 28.41210938 C-18.80108649 21.19562156 -18.45422892 16.05348057 -14.3515625 10 C-13.3615625 9.67 -12.3715625 9.34 -11.3515625 9 C-9.71661184 6.66683434 -8.22785626 4.27376831 -6.75390625 1.8359375 C-3.97759159 -0.28579891 -3.36496054 -0.25074016 0 0 Z " fill="#343434" transform="translate(140.3515625,269)"/>
<path d="M0 0 C1.37671875 0.99580078 1.37671875 0.99580078 2.78125 2.01171875 C5.79753302 4.5642916 8.00568264 7.25497497 10.5 10.3125 C9.51942627 10.40748779 8.53885254 10.50247559 7.52856445 10.6003418 C-29.09732306 14.19528037 -62.73952972 20.03680146 -92.5 43.3125 C-94.74233407 45.01029501 -96.99597517 46.69277193 -99.25 48.375 C-100.25546875 49.12910156 -101.2609375 49.88320313 -102.296875 50.66015625 C-103.02390625 51.20542969 -103.7509375 51.75070312 -104.5 52.3125 C-105.16 51.9825 -105.82 51.6525 -106.5 51.3125 C-100.22479075 44.75839256 -93.60090379 38.95063612 -86.5 33.3125 C-85.42722408 32.42718662 -84.35564694 31.54041899 -83.28515625 30.65234375 C-66.62135224 16.97873453 -20.91483738 -15.42175509 0 0 Z " fill="#FAFAFA" transform="translate(362.5,255.6875)"/>
<path d="M0 0 C0.98226562 0.92039062 0.98226562 0.92039062 1.984375 1.859375 C2.64953125 2.46265625 3.3146875 3.0659375 4 3.6875 C5.7167472 5.5898415 6.64464576 7.31175312 7.734375 9.609375 C7.1266626 9.62395752 6.5189502 9.63854004 5.89282227 9.65356445 C-18.47490335 10.30309505 -40.6905805 15.42332794 -64.08447266 21.90893555 C-66.39475915 22.54801861 -68.70708631 23.1793251 -71.01953125 23.81054688 C-79.35913579 26.10929681 -87.47541811 28.64878393 -95.53857422 31.79125977 C-98.265625 32.609375 -98.265625 32.609375 -101.265625 31.609375 C-83.83895759 19.00469157 -67.01003218 10.33189867 -46.265625 4.609375 C-45.35039062 4.35389893 -44.43515625 4.09842285 -43.4921875 3.83520508 C-36.00389877 1.84412436 -28.5884767 0.73804352 -20.890625 -0.078125 C-19.18712891 -0.27245117 -19.18712891 -0.27245117 -17.44921875 -0.47070312 C-3.31754625 -2.03628701 -3.31754625 -2.03628701 0 0 Z " fill="#F9F9F9" transform="translate(369.265625,269.390625)"/>
<path d="M0 0 C0.66 0.33 1.32 0.66 2 1 C-2.29 5.29 -6.58 9.58 -11 14 C-3.91163201 15.92693499 3.15780808 17.83289885 10.3215332 19.45727539 C18.62258256 21.34122186 26.70796579 23.61733892 34.79248047 26.27734375 C37.19212729 27.06289502 39.59780969 27.82819463 42.00390625 28.59375 C62.05126966 35.03914117 80.77408475 43.64806721 99.66601562 52.91186523 C102.07051266 54.08697881 102.07051266 54.08697881 105 55 C104.25234375 54.19175781 103.5046875 53.38351562 102.734375 52.55078125 C101.73949763 51.47143316 100.74471077 50.39200163 99.75 49.3125 C99.01330078 48.51682617 99.01330078 48.51682617 98.26171875 47.70507812 C95.37269261 44.56566972 92.62459433 41.36822939 90 38 C93.33865998 39.44575901 95.48071403 41.26714538 98 43.875 C98.99 44.89207031 98.99 44.89207031 100 45.9296875 C100.99 46.95449219 100.99 46.95449219 102 48 C103.32 49.32 104.64 50.64 106 52 C106.33 44.08 106.66 36.16 107 28 C107.33 28 107.66 28 108 28 C108 37.57 108 47.14 108 57 C113.99078639 55.28834675 116.1024224 54.54919225 120.625 50.9375 C125.08279286 47.46155012 129.58789744 44.13442539 134.25 40.9375 C134.82314941 40.54361084 135.39629883 40.14972168 135.98681641 39.74389648 C137.3231568 38.82723832 138.6613606 37.91329753 140 37 C140.66 37.33 141.32 37.66 142 38 C141.16855469 38.61488281 140.33710938 39.22976563 139.48046875 39.86328125 C138.38271657 40.67955851 137.28506563 41.49597193 136.1875 42.3125 C135.64029297 42.71662109 135.09308594 43.12074219 134.52929688 43.53710938 C131.83867796 45.54284347 129.27895795 47.5291298 127 50 C127.7321875 49.72027344 128.464375 49.44054687 129.21875 49.15234375 C139.91783069 45.19113649 150.79527738 41.91929757 161.79248047 38.890625 C163.88682218 38.30909367 165.97728206 37.71334306 168.06298828 37.1015625 C188.21302171 31.23973459 211.17790533 29.06236031 232 33 C232 33.33 232 33.66 232 34 C231.26177002 33.98428955 230.52354004 33.9685791 229.76293945 33.95239258 C197.88770966 33.36682328 167.13910962 38.37638014 137 49 C136.32308105 49.2357373 135.64616211 49.47147461 134.94873047 49.71435547 C127.66365133 52.26903642 120.54306636 54.77865729 114.08984375 59.1171875 C109.79877451 60.92986348 106.02701772 60.39787611 101.7734375 58.75 C100.65195313 58.1725 99.53046875 57.595 98.375 57 C92.12084781 53.90347118 85.77100886 51.23508027 79.25 48.75 C78.39970215 48.42128906 77.5494043 48.09257812 76.67333984 47.75390625 C65.63726061 43.58372786 54.57874106 41.25128508 42.9375 39.4375 C41.5637172 39.21917895 40.18993793 39.00083569 38.81616211 38.7824707 C28.90762637 37.22382711 18.98914733 35.91806978 9 35 C9 34.67 9 34.34 9 34 C31.78559574 31.39144214 54.63439007 37.22673948 76 45 C63.73370387 32.73370387 31.41210449 27.50867457 14.8125 23.125 C13.6898877 22.82634033 12.56727539 22.52768066 11.41064453 22.2199707 C1.83533652 19.55118104 1.83533652 19.55118104 -8 19 C-10.6350119 20.73222894 -10.6350119 20.73222894 -12.125 23.4375 C-12.68445313 24.28183594 -13.24390625 25.12617188 -13.8203125 25.99609375 C-14.20960938 26.65738281 -14.59890625 27.31867188 -15 28 C-15.66 27.34 -16.32 26.68 -17 26 C-14.69 23.36 -12.38 20.72 -10 18 C-11.32 17.34 -12.64 16.68 -14 16 C-12.34136495 11.67495164 -9.128959 8.90581175 -5.875 5.75 C-5.31167969 5.19570313 -4.74835938 4.64140625 -4.16796875 4.0703125 C-2.78313972 2.70895515 -1.39216796 1.35385141 0 0 Z " fill="#2E2E2E" transform="translate(144,251)"/>
<path d="M0 0 C6.81258766 0.91525259 13.39985756 2.72749097 20.01953125 4.5390625 C20.67998444 4.71835297 21.34043762 4.89764343 22.02090454 5.08236694 C43.25045413 10.85452126 63.43571668 18.42211884 83.70703125 26.9140625 C79.13734484 28.37560422 75.75886277 26.81994261 71.39453125 25.2890625 C43.86624778 16.15125367 15.4837937 13.53066933 -13.29296875 11.9140625 C-12.35989454 10.47368581 -11.42131798 9.03687265 -10.48046875 7.6015625 C-9.95839844 6.80105469 -9.43632812 6.00054687 -8.8984375 5.17578125 C-4.80116683 -0.59628619 -4.80116683 -0.59628619 0 0 Z " fill="#F8F8F8" transform="translate(140.29296875,269.0859375)"/>
<path d="M0 0 C1.20638123 -0.00209976 1.20638123 -0.00209976 2.43713379 -0.00424194 C30.45361511 0.03550118 56.96804893 5.5167609 82.75 16.4375 C82.75 17.0975 82.75 17.7575 82.75 18.4375 C75.82 17.9425 75.82 17.9425 68.75 17.4375 C69.08 16.7775 69.41 16.1175 69.75 15.4375 C40.67676103 10.15800785 12.29497611 6.93343255 -17.25 6.4375 C-17.25 6.1075 -17.25 5.7775 -17.25 5.4375 C-20.55 5.4375 -23.85 5.4375 -27.25 5.4375 C-27.25 9.0675 -27.25 12.6975 -27.25 16.4375 C-27.58 16.4375 -27.91 16.4375 -28.25 16.4375 C-28.25 11.8175 -28.25 7.1975 -28.25 2.4375 C-18.8043876 0.35979904 -9.62181795 -0.00160553 0 0 Z " fill="#F2F2F2" transform="translate(151.25,286.5625)"/>
<path d="M0 0 C0.98286987 -0.00276947 1.96573975 -0.00553894 2.97839355 -0.00839233 C5.80334268 -0.01421046 8.62817554 -0.01239064 11.453125 -0.0078125 C12.30209351 -0.00978134 13.15106201 -0.01175018 14.02575684 -0.01377869 C18.38027593 0.00313063 22.46202653 0.25338327 26.75 1.125 C26.75 1.455 26.75 1.785 26.75 2.125 C24.77 2.455 22.79 2.785 20.75 3.125 C20.75 3.455 20.75 3.785 20.75 4.125 C19.51475586 4.11452637 18.27951172 4.10405273 17.00683594 4.09326172 C-4.15604382 3.93020141 -25.30089292 3.8009095 -46.4375 5 C-47.52726135 5.0589444 -47.52726135 5.0589444 -48.63903809 5.11907959 C-64.62354816 5.62779365 -64.62354816 5.62779365 -79.25 11.125 C-82.84375 11.5234375 -82.84375 11.5234375 -86.75 11.5 C-88.0390625 11.50773437 -89.328125 11.51546875 -90.65625 11.5234375 C-94.25 11.125 -94.25 11.125 -96.53125 9.671875 C-106.66994565 3.90330679 -123.32509104 5.71552196 -134.75 5.5 C-136.45965229 5.46168301 -138.16928812 5.42262418 -139.87890625 5.3828125 C-144.00246543 5.28836232 -148.12611354 5.20381262 -152.25 5.125 C-152.25 4.795 -152.25 4.465 -152.25 4.125 C-148.95 3.795 -145.65 3.465 -142.25 3.125 C-155.12 2.63 -155.12 2.63 -168.25 2.125 C-168.25 1.795 -168.25 1.465 -168.25 1.125 C-152.18800431 0.80012819 -136.30871879 0.90928149 -120.3125 2.5 C-119.02335693 2.62608643 -117.73421387 2.75217285 -116.40600586 2.88208008 C-108.3304996 3.74010596 -100.98530205 5.12374031 -93.3125 7.8125 C-88.47748038 9.26820483 -84.1089418 9.70157154 -79.25 8.125 C-78.3940625 7.48046875 -77.538125 6.8359375 -76.65625 6.171875 C-72.0272099 3.39020411 -67.80980872 3.00002344 -62.5 2.4375 C-61.43491211 2.31721436 -60.36982422 2.19692871 -59.27246094 2.07299805 C-39.5652763 -0.02034931 -19.79397115 0.03754486 0 0 Z " fill="#2A2A2A" transform="translate(337.25,312.875)"/>
<path d="M0 0 C0.74958984 0.00451172 1.49917969 0.00902344 2.27148438 0.01367188 C4.11852383 0.02543646 5.96552213 0.04337135 7.8125 0.0625 C7.8125 0.3925 7.8125 0.7225 7.8125 1.0625 C9.65521484 1.10117187 9.65521484 1.10117187 11.53515625 1.140625 C32.53505278 1.75223302 53.30538359 4.67855084 74 8.1875 C74.94351318 8.34581299 75.88702637 8.50412598 76.85913086 8.66723633 C77.72417236 8.82087646 78.58921387 8.9745166 79.48046875 9.1328125 C80.59844849 9.33028076 80.59844849 9.33028076 81.73901367 9.53173828 C83.97067633 10.10298927 85.77906779 10.99207901 87.8125 12.0625 C89.5519795 12.63705535 91.30283048 13.17812198 93.0625 13.6875 C93.95453125 13.94789063 94.8465625 14.20828125 95.765625 14.4765625 C96.44109375 14.66992188 97.1165625 14.86328125 97.8125 15.0625 C97.8125 15.3925 97.8125 15.7225 97.8125 16.0625 C91.28867197 15.56500745 84.88172073 14.80261124 78.43261719 13.70410156 C50.72403877 9.02258193 22.87818672 7.45032898 -5.1875 8.0625 C-4.8575 7.4025 -4.5275 6.7425 -4.1875 6.0625 C0.56306583 6.03771577 5.31359371 6.01960011 10.06420898 6.00756836 C11.67912451 6.00255058 13.29403552 5.99573489 14.90893555 5.98706055 C17.23487465 5.97488286 19.5607535 5.96924605 21.88671875 5.96484375 C22.96357185 5.95710182 22.96357185 5.95710182 24.06217957 5.94920349 C27.77540232 5.94879124 31.20241122 6.17305784 34.8125 7.0625 C34.8125 6.4025 34.8125 5.7425 34.8125 5.0625 C19.9625 4.7325 5.1125 4.4025 -10.1875 4.0625 C-10.5175 3.0725 -10.8475 2.0825 -11.1875 1.0625 C-7.42449626 -0.19183458 -3.91539091 -0.04445422 0 0 Z " fill="#797979" transform="translate(137.1875,290.9375)"/>
<path d="M0 0 C0.33 0 0.66 0 1 0 C1 9.57 1 19.14 1 29 C6.99078639 27.28834675 9.1024224 26.54919225 13.625 22.9375 C18.08279286 19.46155012 22.58789744 16.13442539 27.25 12.9375 C27.82314941 12.54361084 28.39629883 12.14972168 28.98681641 11.74389648 C30.3231568 10.82723832 31.6613606 9.91329753 33 9 C33.66 9.33 34.32 9.66 35 10 C34.16855469 10.61488281 33.33710938 11.22976563 32.48046875 11.86328125 C31.38271657 12.67955851 30.28506563 13.49597193 29.1875 14.3125 C28.64029297 14.71662109 28.09308594 15.12074219 27.52929688 15.53710938 C24.83867796 17.54284347 22.27895795 19.5291298 20 22 C20.7321875 21.72027344 21.464375 21.44054687 22.21875 21.15234375 C32.91783069 17.19113649 43.79527738 13.91929757 54.79248047 10.890625 C56.88682218 10.30909367 58.97728206 9.71334306 61.06298828 9.1015625 C81.21302171 3.23973459 104.17790533 1.06236031 125 5 C125 5.33 125 5.66 125 6 C124.26177002 5.98428955 123.52354004 5.9685791 122.76293945 5.95239258 C90.88770966 5.36682328 60.13910962 10.37638014 30 21 C29.32308105 21.2357373 28.64616211 21.47147461 27.94873047 21.71435547 C21.38319917 24.01671039 14.92925339 26.27994797 8.9375 29.875 C5.1191027 32.11387053 2.48741706 32.74790284 -2 32 C-4.51985542 30.84651019 -6.666334 29.52402677 -9 28 C-8.67 27.34 -8.34 26.68 -8 26 C-7.38125 26.165 -6.7625 26.33 -6.125 26.5 C-4.03936614 27.07634644 -4.03936614 27.07634644 -2 27 C-2.74765625 26.19175781 -3.4953125 25.38351562 -4.265625 24.55078125 C-5.26050237 23.47143316 -6.25528923 22.39200163 -7.25 21.3125 C-7.74113281 20.78205078 -8.23226562 20.25160156 -8.73828125 19.70507812 C-11.62730739 16.56566972 -14.37540567 13.36822939 -17 10 C-13.66134002 11.44575901 -11.51928597 13.26714538 -9 15.875 C-8.34 16.55304688 -7.68 17.23109375 -7 17.9296875 C-6.34 18.61289062 -5.68 19.29609375 -5 20 C-3.68 21.32 -2.36 22.64 -1 24 C-0.67 16.08 -0.34 8.16 0 0 Z " fill="#2B2B2B" transform="translate(251,279)"/>
<path d="M0 0 C0.99 0.99 1.98 1.98 3 3 C2.67 3.66 2.34 4.32 2 5 C2.24496076 6.62100122 2.49285031 8.24161312 2.75537109 9.85986328 C3.03054955 12.26726287 3.01784671 14.57399243 2.95703125 16.99609375 C2.93576172 17.88490234 2.91449219 18.77371094 2.89257812 19.68945312 C2.83929538 21.51796085 2.77423363 23.34616418 2.69726562 25.17382812 C2.58725691 30.80057002 3.23297719 34.5144493 6.22924805 39.32836914 C7 41 7 41 6 44 C1.60546875 43.51171875 -2.7890625 43.0234375 -7.18359375 42.53515625 C-8.7890625 42.35677083 -10.39453125 42.17838542 -12 42 C-13.28994873 41.85667236 -13.28994873 41.85667236 -14.60595703 41.71044922 C-15.83934814 41.57340576 -15.83934814 41.57340576 -17.09765625 41.43359375 C-18.38542969 41.29050781 -19.67320312 41.14742188 -21 41 C-21.33 40.01 -21.66 39.02 -22 38 C-20.39752808 37.79852868 -18.7928182 37.61487082 -17.1875 37.4375 C-15.84751953 37.28087891 -15.84751953 37.28087891 -14.48046875 37.12109375 C-9.60728911 36.95154429 -4.84227203 37.48201463 0 38 C-0.00523682 37.26362305 -0.01047363 36.52724609 -0.01586914 35.76855469 C-0.03666867 32.42904515 -0.04966968 29.08954926 -0.0625 25.75 C-0.07087891 24.59113281 -0.07925781 23.43226563 -0.08789062 22.23828125 C-0.09111328 21.12324219 -0.09433594 20.00820313 -0.09765625 18.859375 C-0.10289307 17.83295898 -0.10812988 16.80654297 -0.11352539 15.74902344 C-0.01336951 13.32374344 0.30076922 11.31302639 1 9 C0.4225 8.855625 -0.155 8.71125 -0.75 8.5625 C-2.07460483 8.23134879 -3.39425989 7.87604923 -4.69677734 7.46655273 C-7.86338697 6.82510785 -10.87207946 6.92679109 -14.1015625 6.97265625 C-15.4921851 6.98529339 -16.88281022 6.99765501 -18.2734375 7.00976562 C-20.45711194 7.03465853 -22.64065434 7.06273808 -24.82421875 7.09594727 C-26.9375088 7.1260626 -29.05062703 7.14388839 -31.1640625 7.16015625 C-33.05825928 7.18541382 -33.05825928 7.18541382 -34.99072266 7.21118164 C-38 7 -38 7 -40 5 C-26.59923069 1.97808155 -13.70416878 1.6457228 0 2 C0 1.34 0 0.68 0 0 Z " fill="#2E2E2E" transform="translate(377,277)"/>
<path d="M0 0 C0.33 0.66 0.66 1.32 1 2 C3.78291832 2.45545069 3.78291832 2.45545069 7.16015625 2.59765625 C8.42923828 2.67693359 9.69832031 2.75621094 11.00585938 2.83789062 C12.35804734 2.91322098 13.71026124 2.98808715 15.0625 3.0625 C17.67850545 3.21804627 20.2943956 3.37554604 22.91015625 3.53515625 C24.14008301 3.61008301 25.37000977 3.68500977 26.63720703 3.76220703 C30.45574903 4.03222735 34.21209162 4.45473421 38 5 C37.34 5.474375 36.68 5.94875 36 6.4375 C35.34 6.953125 34.68 7.46875 34 8 C34 8.33 34 8.66 34 9 C32.85954224 9.03758423 32.85954224 9.03758423 31.69604492 9.07592773 C28.19307983 9.19321629 24.69029814 9.31533057 21.1875 9.4375 C19.3940918 9.49647461 19.3940918 9.49647461 17.56445312 9.55664062 C10.342016 9.81247627 3.19081784 10.27543834 -4 11 C-4 16.61 -4 22.22 -4 28 C-4.33 28 -4.66 28 -5 28 C-5.10890711 24.99900412 -5.18773555 22.00203622 -5.25 19 C-5.28351563 18.16082031 -5.31703125 17.32164062 -5.3515625 16.45703125 C-5.44562591 10.38994111 -4.29742953 6.11819862 -1 1 C-0.67 0.67 -0.34 0.34 0 0 Z " fill="#343434" transform="translate(127,278)"/>
<path d="M0 0 C0 0.33 0 0.66 0 1 C-0.81227051 1.01458252 -1.62454102 1.02916504 -2.46142578 1.04418945 C-22.45250441 1.44064883 -42.12472935 2.68717286 -62 5 C-63.84827393 5.21390381 -63.84827393 5.21390381 -65.73388672 5.43212891 C-72.82629626 6.25865624 -79.91493923 7.11270313 -87 8 C-85.25 2.25 -85.25 2.25 -83 0 C-83 1.32 -83 2.64 -83 4 C-82.16734619 3.79721436 -81.33469238 3.59442871 -80.47680664 3.38549805 C-69.15577448 0.85473519 -58.00528202 0.24885052 -46.4375 -0.1875 C-44.55269067 -0.26917994 -42.66792431 -0.35185762 -40.78320312 -0.43554688 C-27.14905169 -1.02109095 -13.59061378 -1.553213 0 0 Z " fill="#EEEEEE" transform="translate(206,316)"/>
<path d="M0 0 C7.93258706 5.21084898 15.12121911 11.48675819 22 18 C23.21623047 19.13695312 23.21623047 19.13695312 24.45703125 20.296875 C33.44126701 28.95569749 40.8108117 38.84220611 48 49 C47.505 49.99 47.505 49.99 47 51 C46.34515625 50.15179688 45.6903125 49.30359375 45.015625 48.4296875 C38.26210857 39.72960609 31.31093258 31.23847979 24 23 C23.360625 22.27425781 22.72125 21.54851562 22.0625 20.80078125 C17.57760444 16.02556879 12.43950833 11.99509754 7.3125 7.9375 C6.20612183 7.04115845 6.20612183 7.04115845 5.07739258 6.12670898 C4.36736084 5.57829346 3.6573291 5.02987793 2.92578125 4.46484375 C2.29067627 3.965896 1.65557129 3.46694824 1.0012207 2.95288086 C-1.71907403 1.65761304 -3.1595583 2.13790299 -6 3 C-8.57272877 4.12997178 -11.06130145 5.29277567 -13.5625 6.5625 C-14.62041748 7.09822632 -14.62041748 7.09822632 -15.69970703 7.64477539 C-26.34186544 13.13940735 -35.25867996 19.84763415 -44 28 C-45.9760512 29.69940403 -47.98036212 31.35240067 -50 33 C-50.66 32.67 -51.32 32.34 -52 32 C-40.2750285 20.62660186 -28.34849571 11.61312354 -13.9375 3.875 C-13.02025146 3.37661621 -12.10300293 2.87823242 -11.15795898 2.36474609 C-10.28985596 1.91180176 -9.42175293 1.45885742 -8.52734375 0.9921875 C-7.75124756 0.58339355 -6.97515137 0.17459961 -6.17553711 -0.24658203 C-3.60644921 -1.13629197 -2.5064275 -0.97658083 0 0 Z " fill="#232323" transform="translate(320,191)"/>
<path d="M0 0 C0.98601196 -0.00249756 1.97202393 -0.00499512 2.98791504 -0.00756836 C5.83703071 -0.01348553 8.68603924 -0.01195557 11.53515625 -0.0078125 C12.39377762 -0.00979645 13.25239899 -0.0117804 14.13703918 -0.01382446 C18.51731076 0.00306784 22.62454541 0.24590977 26.9375 1.125 C26.9375 1.455 26.9375 1.785 26.9375 2.125 C24.9575 2.455 22.9775 2.785 20.9375 3.125 C20.9375 3.455 20.9375 3.785 20.9375 4.125 C13.96719023 4.00593144 6.99699814 3.88116084 0.02685547 3.75268555 C-2.33737963 3.70974916 -4.70163759 3.66805131 -7.06591797 3.62768555 C-20.08927863 3.40447518 -33.07273144 3.13133663 -46.0625 2.125 C-46.0625 1.795 -46.0625 1.465 -46.0625 1.125 C-30.70927653 0.1611205 -15.37823159 0.01377024 0 0 Z " fill="#0B0B0B" transform="translate(337.0625,312.875)"/>
<path d="M0 0 C12.59562829 -0.63566722 20.07324947 2.32706929 30 10 C30.92619141 10.69416016 30.92619141 10.69416016 31.87109375 11.40234375 C37.433483 15.83427052 41.63008188 21.43501366 46 27 C46.77214844 27.94488281 47.54429687 28.88976562 48.33984375 29.86328125 C53.73814744 36.60897354 58.44355006 43.65849253 63 51 C63.56428711 51.90862793 64.12857422 52.81725586 64.70996094 53.75341797 C67.16466136 57.76904458 69.33780576 61.58308948 71 66 C68 65 68 65 66.74609375 63.0234375 C66.09833984 61.71246094 66.09833984 61.71246094 65.4375 60.375 C55.12500819 40.74062521 37.31781306 12.07041983 15.5625 4.1875 C10.46673555 2.70808451 5.23477516 1.83169325 0 1 C0 0.67 0 0.34 0 0 Z " fill="#2B2B2B" transform="translate(177,234)"/>
<path d="M0 0 C0.66 0.33 1.32 0.66 2 1 C1.5153125 1.51046875 1.030625 2.0209375 0.53125 2.546875 C-1.71202158 4.97996187 -3.86034135 7.47517216 -6 10 C-6.71164307 10.83893799 -7.42328613 11.67787598 -8.15649414 12.54223633 C-14.79012077 21.29849806 -15.12023449 28.4122259 -14.9375 38.9375 C-14.93677523 41.15940884 -14.94707216 43.38104966 -14.95936584 45.60292053 C-14.96454539 47.59981521 -14.94387733 49.59672839 -14.92163086 51.59350586 C-14.98976223 54.55499202 -15.30171834 57.13187401 -16 60 C-16.33 60 -16.66 60 -17 60 C-16.99887207 58.84701416 -16.99774414 57.69402832 -16.99658203 56.50610352 C-17.00031113 52.14251023 -17.04362702 47.77998383 -17.09765625 43.41674805 C-17.11559316 41.54442316 -17.12342621 39.67196842 -17.12011719 37.79956055 C-17.1060767 24.71031186 -18.78496108 14.04624324 -24 2 C-23.34 1.67 -22.68 1.34 -22 1 C-19.69 6.94 -17.38 12.88 -15 19 C-11.92867617 14.62165701 -11.92867617 14.62165701 -8.8684082 10.2355957 C-6.1870644 6.44768299 -3.37843362 3.18364105 0 0 Z " fill="#393939" transform="translate(267,224)"/>
<path d="M0 0 C0.66 0.33 1.32 0.66 2 1 C1.01644531 1.76699219 0.03289062 2.53398437 -0.98046875 3.32421875 C-17.27705509 16.26831897 -34.81072356 31.24385776 -46.375 48.75 C-46.85710937 49.46671875 -47.33921875 50.1834375 -47.8359375 50.921875 C-48.98001557 52.96432309 -49.55686001 54.71216097 -50 57 C-48.4221875 56.9690625 -48.4221875 56.9690625 -46.8125 56.9375 C-43.67295096 56.98896802 -41.03116604 57.26517187 -38 58 C-38 58.33 -38 58.66 -38 59 C-42.8333472 59.08333357 -47.23692563 58.95261487 -52 58 C-51.18809894 49.67801411 -46.63624887 44.17293347 -41.0625 38.375 C-40.46840332 37.74964355 -39.87430664 37.12428711 -39.26220703 36.47998047 C-37.18616401 34.3087397 -35.09467134 32.15327308 -33 30 C-32.17064941 29.14341797 -31.34129883 28.28683594 -30.48681641 27.40429688 C-10.5393599 6.87349559 -10.5393599 6.87349559 0 0 Z " fill="#191919" transform="translate(180,191)"/>
<path d="M0 0 C0.33 0 0.66 0 1 0 C1 9.57 1 19.14 1 29 C7.22806819 27.29138382 7.22806819 27.29138382 12.4375 24.375 C13.11683594 23.92898438 13.79617188 23.48296875 14.49609375 23.0234375 C14.99238281 22.68570312 15.48867188 22.34796875 16 22 C16 22.66 16 23.32 16 24 C16.66 24.33 17.32 24.66 18 25 C15.98982875 26.18494305 13.9662905 27.34722614 11.9375 28.5 C10.81214844 29.1496875 9.68679688 29.799375 8.52734375 30.46875 C4.63955157 32.15647374 2.19194461 32.43501312 -2 32 C-4.63759283 30.95798802 -6.60296971 29.56540753 -9 28 C-8.67 27.34 -8.34 26.68 -8 26 C-7.38125 26.165 -6.7625 26.33 -6.125 26.5 C-4.03936614 27.07634644 -4.03936614 27.07634644 -2 27 C-2.74765625 26.19175781 -3.4953125 25.38351562 -4.265625 24.55078125 C-5.26050237 23.47143316 -6.25528923 22.39200163 -7.25 21.3125 C-7.74113281 20.78205078 -8.23226562 20.25160156 -8.73828125 19.70507812 C-11.62730739 16.56566972 -14.37540567 13.36822939 -17 10 C-13.66134002 11.44575901 -11.51928597 13.26714538 -9 15.875 C-8.34 16.55304688 -7.68 17.23109375 -7 17.9296875 C-6.34 18.61289062 -5.68 19.29609375 -5 20 C-3.68 21.32 -2.36 22.64 -1 24 C-0.67 16.08 -0.34 8.16 0 0 Z " fill="#0F0F0F" transform="translate(251,279)"/>
<path d="M0 0 C-0.94617188 0.46148437 -1.89234375 0.92296875 -2.8671875 1.3984375 C-26.92494773 13.22098506 -47.25603008 26.92341423 -66.87890625 45.22265625 C-68.8561756 46.87948416 -70.64718412 47.9703096 -73 49 C-58.65885946 30.9711376 -39.28336339 17.47368786 -19 7 C-17.47116388 6.19046342 -15.94251687 5.3805696 -14.4140625 4.5703125 C-12.96459953 3.81567298 -11.51411967 3.06298255 -10.0625 2.3125 C-9.05981079 1.78499146 -9.05981079 1.78499146 -8.03686523 1.24682617 C-3.34897991 -1.11632664 -3.34897991 -1.11632664 0 0 Z " fill="#2C2C2C" transform="translate(327,259)"/>
<path d="M0 0 C16.08280826 -0.32529277 31.982585 -0.2118579 48 1.375 C49.29752197 1.50108643 50.59504395 1.62717285 51.93188477 1.75708008 C57.82074034 2.38111891 63.38747146 3.07904529 69 5 C69 5.33 69 5.66 69 6 C67.6068457 5.90150757 67.6068457 5.90150757 66.18554688 5.80102539 C55.29297537 5.07096567 44.41277203 4.70018708 33.5 4.4375 C31.79035772 4.3941501 30.08072223 4.35053164 28.37109375 4.30664062 C24.24746715 4.20134558 20.1237671 4.09963421 16 4 C16 3.67 16 3.34 16 3 C19.3 2.67 22.6 2.34 26 2 C13.13 1.505 13.13 1.505 0 1 C0 0.67 0 0.34 0 0 Z " fill="#101010" transform="translate(169,314)"/>
<path d="M0 0 C7.03865079 -0.20462296 13.68375705 0.35855116 20.625 1.5 C21.53378906 1.64308594 22.44257813 1.78617187 23.37890625 1.93359375 C25.58711883 2.28225889 27.79397643 2.63778827 30 3 C30 3.33 30 3.66 30 4 C25.77084853 4.02953635 21.54172428 4.04697584 17.3125 4.0625 C15.54422852 4.07506836 15.54422852 4.07506836 13.74023438 4.08789062 C7.99247144 4.10363792 2.32146414 3.99765892 -3.40625 3.5 C-10.88059495 2.85888677 -18.31755953 2.88935652 -25.8125 2.9375 C-27.19856606 2.94253316 -28.58463393 2.9470928 -29.97070312 2.95117188 C-33.31384975 2.96282047 -36.65690011 2.97917571 -40 3 C-39.67 2.34 -39.34 1.68 -39 1 C-34.24943417 0.97521577 -29.49890629 0.95710011 -24.74829102 0.94506836 C-23.13337549 0.94005058 -21.51846448 0.93323489 -19.90356445 0.92456055 C-17.57762535 0.91238286 -15.2517465 0.90674605 -12.92578125 0.90234375 C-11.84892815 0.89460182 -11.84892815 0.89460182 -10.75032043 0.88670349 C-7.03709768 0.88629124 -3.61008878 1.11055784 0 2 C0 1.34 0 0.68 0 0 Z " fill="#A6A6A6" transform="translate(172,296)"/>
<path d="M0 0 C0 0.33 0 0.66 0 1 C-7.51270187 1.44679064 -14.49101008 0.53518417 -21.85058594 -0.78564453 C-30.19128931 -2.2642079 -38.57518623 -3.15353526 -47 -4 C-47 -4.33 -47 -4.66 -47 -5 C-30.73615864 -7.34401261 -15.7284606 -3.98313883 0 0 Z " fill="#101010" transform="translate(200,290)"/>
<path d="M0 0 C1.52410083 0.47471191 3.04884563 0.94736109 4.57421875 1.41796875 C5.69062744 1.76480713 5.69062744 1.76480713 6.82958984 2.11865234 C9.63320426 2.95837285 12.46368224 3.64416661 15.3125 4.3125 C22.61558406 6.09300397 30.02856578 7.93531286 35.9375 12.75 C34.9475 13.41 33.9575 14.07 32.9375 14.75 C30.52416992 14.12255859 30.52416992 14.12255859 27.66796875 12.8984375 C26.62044434 12.46072021 25.57291992 12.02300293 24.49365234 11.57202148 C23.38199707 11.09450439 22.2703418 10.6169873 21.125 10.125 C9.85477933 5.4447479 -0.89265754 1.34330855 -13.0625 -0.25 C-13.0625 -0.58 -13.0625 -0.91 -13.0625 -1.25 C-8.29792107 -2.77914079 -4.5786586 -1.49130824 0 0 Z " fill="#3A3A3A" transform="translate(208.0625,292.25)"/>
<path d="M0 0 C0.99 0.33 1.98 0.66 3 1 C4.1875 4.0625 4.1875 4.0625 5 7 C1.60752452 8.13082516 -0.23857931 7.88850516 -3.76171875 7.44140625 C-4.87998047 7.30283203 -5.99824219 7.16425781 -7.15039062 7.02148438 C-8.31763672 6.87001953 -9.48488281 6.71855469 -10.6875 6.5625 C-11.86634766 6.41490234 -13.04519531 6.26730469 -14.25976562 6.11523438 C-17.17398855 5.7494817 -20.08727922 5.37749874 -23 5 C-23.33 4.01 -23.66 3.02 -24 2 C-18.555 1.505 -18.555 1.505 -13 1 C-13 1.66 -13 2.32 -13 3 C-8.71 3.33 -4.42 3.66 0 4 C0 2.68 0 1.36 0 0 Z " fill="#414141" transform="translate(379,313)"/>
<path d="M0 0 C0.66 0.33 1.32 0.66 2 1 C-2.29 5.29 -6.58 9.58 -11 14 C-3.02229131 16.15613748 4.91198426 18.29725984 13 20 C13 20.33 13 20.66 13 21 C11.3749437 20.85479535 9.74995883 20.70879131 8.125 20.5625 C7.12210938 20.48386719 6.11921875 20.40523438 5.0859375 20.32421875 C2 20 2 20 -0.7109375 19.39453125 C-3.37925448 18.84855254 -5.31087305 18.52142656 -8 19 C-10.95818854 21.63480234 -12.99790066 24.59908291 -15 28 C-15.66 27.34 -16.32 26.68 -17 26 C-14.69 23.36 -12.38 20.72 -10 18 C-11.32 17.34 -12.64 16.68 -14 16 C-12.34136495 11.67495164 -9.128959 8.90581175 -5.875 5.75 C-5.31167969 5.19570313 -4.74835938 4.64140625 -4.16796875 4.0703125 C-2.78313972 2.70895515 -1.39216796 1.35385141 0 0 Z " fill="#242424" transform="translate(144,251)"/>
<path d="M0 0 C0 0.33 0 0.66 0 1 C-1.26070312 1.05534912 -2.52140625 1.11069824 -3.8203125 1.16772461 C-8.52439885 1.37510266 -13.22828718 1.5867119 -17.93212891 1.79956055 C-19.96300227 1.89087389 -21.99392668 1.9810595 -24.02490234 2.07006836 C-26.95424515 2.19864913 -29.88337678 2.33136484 -32.8125 2.46484375 C-33.71178223 2.50343002 -34.61106445 2.5420163 -35.53759766 2.58177185 C-39.5563614 2.76846955 -43.47198944 3.04230068 -47.44921875 3.65844727 C-51 4 -51 4 -54 2 C-35.7286932 -0.4846334 -18.40933721 -1.98636394 0 0 Z " fill="#484848" transform="translate(181,315)"/>
<path d="M0 0 C0.75414185 -0.00095673 1.50828369 -0.00191345 2.28527832 -0.00289917 C3.87198979 -0.00357648 5.45870409 -0.00175367 7.04541016 0.00244141 C9.46132689 0.00779605 11.87705774 0.00248115 14.29296875 -0.00390625 C15.84114624 -0.00324539 17.38932361 -0.00196406 18.9375 0 C19.65329224 -0.00202423 20.36908447 -0.00404846 21.10656738 -0.00613403 C25.16381421 0.01264841 28.98782121 0.3492325 32.96875 1.1328125 C32.96875 1.4628125 32.96875 1.7928125 32.96875 2.1328125 C32.23052002 2.11710205 31.49229004 2.1013916 30.73168945 2.08520508 C17.10612591 1.83489436 3.82360813 1.78238707 -9.6315918 4.15356445 C-10.81942261 4.36178833 -10.81942261 4.36178833 -12.03125 4.57421875 C-12.711875 4.70513916 -13.3925 4.83605957 -14.09375 4.97094727 C-16.2862165 5.15411325 -17.93866681 4.77243998 -20.03125 4.1328125 C-13.36761788 0.48368062 -7.49338573 -0.02119099 0 0 Z " fill="#121212" transform="translate(343.03125,282.8671875)"/>
<path d="M0 0 C8.41511595 0.05087736 16.72336953 1.14974154 25.0625 2.1875 C25.0625 2.5175 25.0625 2.8475 25.0625 3.1875 C24.3826001 3.21255615 23.7027002 3.2376123 23.00219727 3.26342773 C19.87632721 3.38055822 16.75067372 3.50274656 13.625 3.625 C12.55572266 3.66431641 11.48644531 3.70363281 10.38476562 3.74414062 C4.23152064 3.98876504 -1.82664575 4.42284 -7.9375 5.1875 C-5.69400366 0.5509409 -5.22653327 0.03584728 0 0 Z " fill="#EDEDED" transform="translate(132.9375,281.8125)"/>
<path d="M0 0 C1.1484375 1.6875 1.1484375 1.6875 2 4 C1.1640625 6.375 1.1640625 6.375 -0.375 9 C-0.931875 9.95519531 -1.48875 10.91039062 -2.0625 11.89453125 C-5.25524724 17.01193862 -8.58226075 22.0295315 -12 27 C-12.33 26.01 -12.66 25.02 -13 24 C-11.5625 21.3125 -11.5625 21.3125 -10 19 C-16.80568135 16.39973251 -16.80568135 16.39973251 -24 16 C-24.33 15.34 -24.66 14.68 -25 14 C-20.83679957 12.75103987 -18.56685598 12.95969694 -14.8125 14.9375 C-14.15894531 15.31777344 -13.50539062 15.69804687 -12.83203125 16.08984375 C-10.89315827 17.22246035 -10.89315827 17.22246035 -8 17 C-6.84856175 14.9195946 -5.70375888 12.83598003 -4.5625 10.75 C-4.23701172 10.16347656 -3.91152344 9.57695312 -3.57617188 8.97265625 C-1.97117383 6.0274021 -0.5836512 3.32105755 0 0 Z " fill="#2F2F2F" transform="translate(206,176)"/>
<path d="M0 0 C1.47919922 0.35964844 1.47919922 0.35964844 2.98828125 0.7265625 C8.35744675 2.05046632 13.69660346 3.43308739 19 5 C19 5.66 19 6.32 19 7 C17.08651132 6.57692787 15.17305804 6.15369514 13.25976562 5.72973633 C11.61667223 5.36567902 9.97344093 5.00224355 8.33007812 4.6394043 C3.54076423 3.57828481 -1.23191663 2.46597646 -6 1.3125 C-11.31552804 0.0697336 -16.55588354 -0.64361314 -22 -1 C-15.35977347 -4.87968291 -7.06385759 -1.72946593 0 0 Z " fill="#3F3F3F" transform="translate(160,252)"/>
<path d="M0 0 C15.99557956 -0.80725355 25.33124914 5.59959163 37 16 C36.34 16.66 35.68 17.32 35 18 C34.41605469 17.34644531 34.41605469 17.34644531 33.8203125 16.6796875 C24.15761272 6.39358773 13.55769317 3.30456267 0 1 C0 0.67 0 0.34 0 0 Z " fill="#3E3E3E" transform="translate(177,234)"/>
<path d="M0 0 C0.74958984 0.00451172 1.49917969 0.00902344 2.27148438 0.01367188 C4.11852383 0.02543646 5.96552213 0.04337135 7.8125 0.0625 C7.8125 0.3925 7.8125 0.7225 7.8125 1.0625 C4.1825 1.0625 0.5525 1.0625 -3.1875 1.0625 C-3.1875 1.7225 -3.1875 2.3825 -3.1875 3.0625 C5.0625 3.0625 13.3125 3.0625 21.8125 3.0625 C21.8125 3.3925 21.8125 3.7225 21.8125 4.0625 C11.2525 4.0625 0.6925 4.0625 -10.1875 4.0625 C-10.5175 3.0725 -10.8475 2.0825 -11.1875 1.0625 C-7.42449626 -0.19183458 -3.91539091 -0.04445422 0 0 Z " fill="#9F9F9F" transform="translate(137.1875,290.9375)"/>
<path d="M0 0 C0.99 0.33 1.98 0.66 3 1 C2.55269531 1.4125 2.10539063 1.825 1.64453125 2.25 C-3.65629839 7.31347906 -8.46777458 12.64857802 -10 20 C-8.4221875 19.9690625 -8.4221875 19.9690625 -6.8125 19.9375 C-3.67295096 19.98896802 -1.03116604 20.26517187 2 21 C2 21.33 2 21.66 2 22 C-2.8333472 22.08333357 -7.23692563 21.95261487 -12 21 C-11.1256121 12.03752406 -5.87411549 6.3526249 0 0 Z " fill="#1E1E1E" transform="translate(140,228)"/>
<path d="M0 0 C1.03253906 0.00676758 1.03253906 0.00676758 2.0859375 0.01367188 C3.76566335 0.02533664 5.44534375 0.04326729 7.125 0.0625 C7.785 1.3825 8.445 2.7025 9.125 4.0625 C1.43602069 3.54844306 -6.22355794 2.9859499 -13.875 2.0625 C-13.875 1.7325 -13.875 1.4025 -13.875 1.0625 C-9.21962644 0.14157719 -4.72814567 -0.05955997 0 0 Z " fill="#E1E1E1" transform="translate(367.875,279.9375)"/>
<path d="M0 0 C3.08404808 0.11020857 6.16691192 0.24075814 9.25 0.375 C10.55904297 0.42140625 10.55904297 0.42140625 11.89453125 0.46875 C13.16103516 0.52675781 13.16103516 0.52675781 14.453125 0.5859375 C15.22817383 0.6173584 16.00322266 0.6487793 16.80175781 0.68115234 C19.20865742 1.03026506 20.89602295 1.80551104 23 3 C18.70903831 3.22509088 14.41730127 3.42723952 10.125 3.625 C8.90167969 3.68945312 7.67835938 3.75390625 6.41796875 3.8203125 C4.66806641 3.89765625 4.66806641 3.89765625 2.8828125 3.9765625 C1.26463623 4.05511475 1.26463623 4.05511475 -0.38623047 4.13525391 C-3 4 -3 4 -5 2 C-3.35 1.67 -1.7 1.34 0 1 C0 0.67 0 0.34 0 0 Z " fill="#464646" transform="translate(288,314)"/>
<path d="M0 0 C3.12743785 1.23747541 5.50357381 3.13395996 8.171875 5.171875 C9.203125 5.95175781 10.234375 6.73164063 11.296875 7.53515625 C13.76264221 9.52854143 15.98857566 11.56586103 18.171875 13.859375 C14.04238221 13.859375 12.7803171 12.13323561 9.671875 9.484375 C6.88362261 7.12335483 4.21304153 4.88681935 1.171875 2.859375 C-1.30863722 3.12197283 -1.30863722 3.12197283 -3.828125 3.859375 C-4.59125 4.045 -5.354375 4.230625 -6.140625 4.421875 C-6.6975 4.56625 -7.254375 4.710625 -7.828125 4.859375 C-7.828125 4.199375 -7.828125 3.539375 -7.828125 2.859375 C-2.46227134 -0.18940549 -2.46227134 -0.18940549 0 0 Z " fill="#2A2A2A" transform="translate(317.828125,190.140625)"/>
<path d="M0 0 C11.52164009 -0.18451025 11.52164009 -0.18451025 17 1 C17 1.33 17 1.66 17 2 C15.02 2.33 13.04 2.66 11 3 C11 3.33 11 3.66 11 4 C7.04 4 3.08 4 -1 4 C-0.67 2.68 -0.34 1.36 0 0 Z " fill="#313131" transform="translate(347,313)"/>
<path d="M0 0 C-2.89795191 2.46789056 -4.83377042 3.40964115 -8.625 3.6875 C-9.924375 3.78417969 -9.924375 3.78417969 -11.25 3.8828125 C-15.50273146 4.06403685 -19.74466863 4.08148507 -24 4 C-17.13767246 -0.57488503 -8.01062788 -0.3127794 0 0 Z " fill="#070707" transform="translate(289,315)"/>
<path d="M0 0 C1.62298394 0.20421652 3.24826179 0.39073261 4.875 0.5625 C5.65617187 0.64628906 6.43734375 0.73007812 7.2421875 0.81640625 C7.82226562 0.87699219 8.40234375 0.93757813 9 1 C9 1.33 9 1.66 9 2 C5.04243356 2.22515501 1.08402412 2.42727348 -2.875 2.625 C-4.00292969 2.68945312 -5.13085938 2.75390625 -6.29296875 2.8203125 C-7.36933594 2.871875 -8.44570313 2.9234375 -9.5546875 2.9765625 C-10.54968262 3.02893066 -11.54467773 3.08129883 -12.56982422 3.13525391 C-15 3 -15 3 -17 1 C-5.85376234 -1.39981273 -5.85376234 -1.39981273 0 0 Z " fill="#6A6A6A" transform="translate(354,281)"/>
<path d="M0 0 C0.33 0.99 0.66 1.98 1 3 C-3.95 3.33 -8.9 3.66 -14 4 C-14.33 3.01 -14.66 2.02 -15 1 C-13.43784452 0.83013455 -11.8752548 0.66426036 -10.3125 0.5 C-9.44238281 0.4071875 -8.57226562 0.314375 -7.67578125 0.21875 C-5.10276661 0.00840136 -2.58015636 -0.03719144 0 0 Z " fill="#EAEAEA" transform="translate(351,289)"/>
<path d="M0 0 C2.97 0.33 5.94 0.66 9 1 C7.02 1.99 7.02 1.99 5 3 C7.64 5.31 10.28 7.62 13 10 C12.34 10.66 11.68 11.32 11 12 C9.33333333 10.33333333 7.66666667 8.66666667 6 7 C5.1028125 6.195625 5.1028125 6.195625 4.1875 5.375 C3 4 3 4 3 1 C2.01 0.67 1.02 0.34 0 0 Z " fill="#454545" transform="translate(365,266)"/>
<path d="M0 0 C0 3.28247431 -0.33076673 3.82566967 -2.1875 6.35546875 C-2.63867188 6.97744141 -3.08984375 7.59941406 -3.5546875 8.24023438 C-4.03164062 8.88283203 -4.50859375 9.52542969 -5 10.1875 C-5.47695312 10.84169922 -5.95390625 11.49589844 -6.4453125 12.16992188 C-7.62389275 13.78457682 -8.81113182 15.39290497 -10 17 C-10.66 16.67 -11.32 16.34 -12 16 C-10.56635564 13.89311385 -9.12829067 11.78949074 -7.6875 9.6875 C-7.28337891 9.09259766 -6.87925781 8.49769531 -6.46289062 7.88476562 C-4.49705074 5.02390921 -2.5930683 2.32453048 0 0 Z " fill="#212121" transform="translate(192,202)"/>
<path d="M0 0 C0.66 0.33 1.32 0.66 2 1 C-2.95 4.96 -7.9 8.92 -13 13 C-13 12.01 -13 11.02 -13 10 C-10.86974265 8.14187717 -8.7760903 6.47106476 -6.5 4.8125 C-5.87996094 4.34908203 -5.25992188 3.88566406 -4.62109375 3.40820312 C-3.08707119 2.2635863 -1.54433057 1.13067059 0 0 Z " fill="#232323" transform="translate(180,191)"/>
<path d="M0 0 C0 0.66 0 1.32 0 2 C1.65 2 3.3 2 5 2 C5 2.33 5 2.66 5 3 C0.05 3.33 -4.9 3.66 -10 4 C-10.33 3.01 -10.66 2.02 -11 1 C-9.54182203 0.83197949 -8.0834516 0.66562857 -6.625 0.5 C-5.81289063 0.4071875 -5.00078125 0.314375 -4.1640625 0.21875 C-2 0 -2 0 0 0 Z " fill="#959595" transform="translate(366,314)"/>
<path d="M0 0 C0.33 0.66 0.66 1.32 1 2 C1.66 2.33 2.32 2.66 3 3 C-3.435 5.97 -3.435 5.97 -10 9 C-10.33 8.34 -10.66 7.68 -11 7 C-9.9275 6.401875 -8.855 5.80375 -7.75 5.1875 C-5.01041007 3.62598931 -2.46743122 1.97394497 0 0 Z " fill="#181818" transform="translate(266,301)"/>
<path d="M0 0 C0.66 0.33 1.32 0.66 2 1 C0.48328036 5.55015893 -3.16891053 7.50057264 -7 10 C-7.66 9.67 -8.32 9.34 -9 9 C-6.03 6.03 -3.06 3.06 0 0 Z " fill="#CFCFCF" transform="translate(265,298)"/>
<path d="M0 0 C0 0.66 0 1.32 0 2 C-2.12254855 2.38863565 -4.24816828 2.76053209 -6.375 3.125 C-8.15003906 3.43824219 -8.15003906 3.43824219 -9.9609375 3.7578125 C-10.96382813 3.83773438 -11.96671875 3.91765625 -13 4 C-13.66 3.34 -14.32 2.68 -15 2 C-13.06524329 1.46906676 -11.12706845 0.95057683 -9.1875 0.4375 C-8.10855469 0.14746094 -7.02960938 -0.14257812 -5.91796875 -0.44140625 C-3 -1 -3 -1 0 0 Z " fill="#383838" transform="translate(324,287)"/>
<path d="M0 0 C4.72065967 1.54269924 9.41664092 3.07794619 14 5 C10.11764181 6.49828872 7.56550712 5.43110582 3.75 4.0625 C2.67234375 3.68222656 1.5946875 3.30195313 0.484375 2.91015625 C-0.33546875 2.60980469 -1.1553125 2.30945313 -2 2 C-1.34 1.34 -0.68 0.68 0 0 Z " fill="#D5D5D5" transform="translate(210,291)"/>
<path d="M0 0 C1.77155654 0.11429397 3.54226229 0.24183037 5.3125 0.375 C6.79169922 0.47941406 6.79169922 0.47941406 8.30078125 0.5859375 C11 1 11 1 14 3 C12.22925083 3.02705729 10.45838289 3.04642195 8.6875 3.0625 C7.70136719 3.07410156 6.71523437 3.08570313 5.69921875 3.09765625 C3 3 3 3 0 2 C0 1.34 0 0.68 0 0 Z " fill="#0A0A0A" transform="translate(186,288)"/>
<path d="M0 0 C0 0.33 0 0.66 0 1 C-2.10277123 1.22197585 -4.20732302 1.42713637 -6.3125 1.625 C-7.48425781 1.74101562 -8.65601563 1.85703125 -9.86328125 1.9765625 C-13 2 -13 2 -16 0 C-10.31302429 -0.91397824 -5.68697571 -0.91397824 0 0 Z " fill="#5A5A5A" transform="translate(152,321)"/>
<path d="M0 0 C0.99 0.33 1.98 0.66 3 1 C-0.33333333 4.33333333 -3.66666667 7.66666667 -7 11 C-7 7.22089522 -6.00296038 6.53893899 -3.5 3.8125 C-2.8503125 3.09707031 -2.200625 2.38164062 -1.53125 1.64453125 C-1.0259375 1.10183594 -0.520625 0.55914062 0 0 Z " fill="#313131" transform="translate(140,228)"/>
<path d="M0 0 C4.1012478 0.46871403 8.04772249 1.83756544 12 3 C12 3.66 12 4.32 12 5 C7.38 4.01 2.76 3.02 -2 2 C-1.34 1.34 -0.68 0.68 0 0 Z " fill="#474747" transform="translate(167,254)"/>
<path d="M0 0 C1.16015625 0.28617188 1.16015625 0.28617188 2.34375 0.578125 C3.1171875 0.75859375 3.890625 0.9390625 4.6875 1.125 C6.84375 1.828125 6.84375 1.828125 9.84375 3.828125 C-0.71433656 2.86457147 -0.71433656 2.86457147 -5.15625 1.828125 C-2.15625 -0.171875 -2.15625 -0.171875 0 0 Z " fill="#373737" transform="translate(157.15625,251.171875)"/>
<path d="M0 0 C0.66 0.33 1.32 0.66 2 1 C-0.51407619 5.28324091 -2.12314139 7.64531705 -7 9 C-6.02180976 7.68677212 -5.0424189 6.37443848 -4.0625 5.0625 C-3.51722656 4.33160156 -2.97195313 3.60070312 -2.41015625 2.84765625 C-1 1 -1 1 0 0 Z " fill="#F2F2F2" transform="translate(272,292)"/>
<path d="M0 0 C4.98012761 1.50912958 8.24259942 4.55661849 12 8 C11.01 8.495 11.01 8.495 10 9 C8.33043913 7.69118353 6.66441696 6.37785174 5 5.0625 C4.071875 4.33160156 3.14375 3.60070312 2.1875 2.84765625 C1.465625 2.23792969 0.74375 1.62820313 0 1 C0 0.67 0 0.34 0 0 Z " fill="#2D2D2D" transform="translate(223,280)"/>
<path d="M0 0 C5.445 1.485 5.445 1.485 11 3 C10.34 3.66 9.68 4.32 9 5 C5.19090105 4.67582137 3.21627837 4.14418558 0 2 C0 1.34 0 0.68 0 0 Z " fill="#424242" transform="translate(238,319)"/>
<path d="M0 0 C3.63 0 7.26 0 11 0 C11 0.33 11 0.66 11 1 C7.37 1.66 3.74 2.32 0 3 C0 2.01 0 1.02 0 0 Z " fill="#4D4D4D" transform="translate(347,313)"/>
<path d="M0 0 C0.99 0.33 1.98 0.66 3 1 C0.03 3.64 -2.94 6.28 -6 9 C-6.66 8.34 -7.32 7.68 -8 7 C-6.74057614 5.80040625 -5.46704714 4.61560557 -4.1875 3.4375 C-3.12595703 2.44556641 -3.12595703 2.44556641 -2.04296875 1.43359375 C-1.36878906 0.96050781 -0.69460938 0.48742187 0 0 Z " fill="#3A3A3A" transform="translate(273,289)"/>
<path d="M0 0 C2.95012857 1.36970255 5.5652222 2.82609125 8 5 C8 5.99 8 6.98 8 8 C6.35 8 4.7 8 3 8 C3.66 7.34 4.32 6.68 5 6 C3.35 4.02 1.7 2.04 0 0 Z " fill="#242424" transform="translate(367,259)"/>
<path d="M0 0 C4.29 0 8.58 0 13 0 C13 0.66 13 1.32 13 2 C11.39884424 2.2493357 9.79379841 2.47378648 8.1875 2.6875 C6.84751953 2.87892578 6.84751953 2.87892578 5.48046875 3.07421875 C3 3 3 3 0 0 Z " fill="#2A2A2A" transform="translate(335,283)"/>
<path d="M0 0 C0.66 0.33 1.32 0.66 2 1 C-0.31 3.97 -2.62 6.94 -5 10 C-5.66 9.34 -6.32 8.68 -7 8 C-4.69 5.36 -2.38 2.72 0 0 Z " fill="#2E2E2E" transform="translate(134,269)"/>
<path d="M0 0 C2.16874252 0.50603992 3.99967627 0.99983813 6 2 C5.67 2.99 5.34 3.98 5 5 C3.02 4.01 1.04 3.02 -1 2 C-0.67 1.34 -0.34 0.68 0 0 Z " fill="#171717" transform="translate(243,305)"/>
<path d="M0 0 C4.43458973 1.3937282 6.87378374 3.60582235 10 7 C6.433255 7 5.89456323 6.36308045 3.3125 4.0625 C2.68988281 3.51722656 2.06726563 2.97195312 1.42578125 2.41015625 C0.95527344 1.94480469 0.48476563 1.47945312 0 1 C0 0.67 0 0.34 0 0 Z " fill="#333333" transform="translate(326,197)"/>
<path d="M0 0 C3 3.75 3 3.75 3 6 C-0.3 5.67 -3.6 5.34 -7 5 C-7 4.67 -7 4.34 -7 4 C-4.69 4 -2.38 4 0 4 C0 2.68 0 1.36 0 0 Z " fill="#E6E6E6" transform="translate(379,313)"/>
<path d="M0 0 C6.6 0.6 6.6 0.6 9 3 C2.375 3.25 2.375 3.25 -1 1 C-0.67 0.67 -0.34 0.34 0 0 Z " fill="#7D7D7D" transform="translate(222,297)"/>
<path d="M0 0 C2.97 0.495 2.97 0.495 6 1 C5.01 1.495 5.01 1.495 4 2 C4 2.66 4 3.32 4 4 C1.69 3.67 -0.62 3.34 -3 3 C-2.01 2.67 -1.02 2.34 0 2 C0 1.34 0 0.68 0 0 Z " fill="#373737" transform="translate(182,286)"/>
<path d="M0 0 C0.66 0 1.32 0 2 0 C4 3 4 3 3.625 5.1875 C3.41875 5.785625 3.2125 6.38375 3 7 C1.68 7 0.36 7 -1 7 C-1 6.34 -1 5.68 -1 5 C-0.01 5 0.98 5 2 5 C1.34 3.35 0.68 1.7 0 0 Z " fill="#454545" transform="translate(367,242)"/>
<path d="M0 0 C1.98 0.66 3.96 1.32 6 2 C5.01 2.99 4.02 3.98 3 5 C1.68 4.01 0.36 3.02 -1 2 C-0.67 1.34 -0.34 0.68 0 0 Z " fill="#2C2C2C" transform="translate(238,302)"/>
<path d="M0 0 C2.97 0.99 5.94 1.98 9 3 C8.67 3.66 8.34 4.32 8 5 C5.03 4.01 2.06 3.02 -1 2 C-0.67 1.34 -0.34 0.68 0 0 Z " fill="#3B3B3B" transform="translate(208,288)"/>
</svg>
